<svg id="圖層_1" data-name="圖層 1" xmlns="http://www.w3.org/2000/svg" viewBox="0 0 512 512"><defs><style>.cls-1{fill:#1f2020;}</style></defs><path class="cls-1" d="M479.85,301c0,9.58-5.48,19-15.78,25.69-15.34,10-34.67,15-54,15-18.64,0-37.3-4.58-52.43-13.89-1.08-.66-2.17-1.34-3.26-2-40.49-25.34-70.2-57.79-87.1-93.6-5.05-10.69-20.71-10.67-25.73,0-16.79,35.86-46.4,68.39-86.81,93.86l-3.26,2c-15.1,9.35-33.74,14-52.39,14-19.34,0-38.69-4.95-54.06-14.88-10.32-6.68-15.85-16.07-15.87-25.64a26.73,26.73,0,0,1,4.3-14.34c8.78-13.91,27.7-22.1,47.45-22.13,1.92,0,3.85.07,5.78.23,19.42,1.54,38.85-3.51,54.26-15.09,43.24-32.5,56.73-89,60.61-112.8A13.54,13.54,0,0,1,215,126.41l78.46-.12A13.5,13.5,0,0,1,307,137.4c4,23.82,17.61,80.24,61,112.62,15.44,11.54,34.88,16.53,54.31,14.92,1.92-.16,3.85-.24,5.77-.24,19.74,0,38.7,8.1,47.51,22A26.71,26.71,0,0,1,479.85,301Z"/><path class="cls-1" d="M266.3,270.88c-6.37-5.17-19.39-5.14-25.74.05l-25.75,23.95c-29.34,25.26-23.93,64,12.4,83.59,8.53,4.6,17.77,7.56,27.43,7.54v-.07c9.64,0,18.86-3,27.37-7.61,36.3-19.66,41.57-58.48,12.12-83.65Z"/></svg>